 0
SECTION
 2
ENTITIES
  0
POLYLINE
 8
Layer0
 66
     1
70
    8
 10
0.0
 20
 0.0
 30
0.0
  0
VERTEX
  8
MY3DLAYER
10
-25.49999999999993
20
60.0
30
0.0
 70
     32
  0
VERTEX
  8
MY3DLAYER
10
-25.618396294303764
20
56.23256882824067
30
0.0
 70
     32
  0
VERTEX
  8
MY3DLAYER
10
-25.973117921131394
20
52.48000598614125
30
0.0
 70
     32
  0
VERTEX
  8
MY3DLAYER
10
-26.56276495627874
20
48.75712112485605
30
0.0
 70
     32
  0
VERTEX
  8
MY3DLAYER
10
-27.385010332282263
20
45.078606770108266
30
0.0
 70
     32
  0
VERTEX
  8
MY3DLAYER
10
-28.43660902229088
20
41.45898033750274
30
0.0
 70
     32
  0
VERTEX
  8
MY3DLAYER
10
-29.71341084670507
20
37.912526838918936
30
0.0
 70
     32
  0
VERTEX
  8
MY3DLAYER
10
-31.210376852038962
20
34.45324250609528
30
0.0
 70
     32
  0
VERTEX
  8
MY3DLAYER
10
-32.92159919736829
20
31.094779553896757
30
0.0
 70
     32
  0
VERTEX
  8
MY3DLAYER
10
-34.8403244698793
20
27.8503923012599
30
0.0
 70
     32
  0
VERTEX
  8
MY3DLAYER
10
-36.958980337503334
20
24.732884862451346
30
0.0
 70
     32
  0
VERTEX
  8
MY3DLAYER
10
-39.269205433452775
20
21.754560615078375
30
0.0
 70
     32
  0
VERTEX
  8
MY3DLAYER
10
-41.76188235471552
20
18.927173644278472
30
0.0
 70
     32
  0
VERTEX
  8
MY3DLAYER
10
-44.42717364427889
20
16.261882354715127
30
0.0
 70
     32
  0
VERTEX
  8
MY3DLAYER
10
-47.254560615078766
20
13.769205433452488
30
0.0
 70
     32
  0
VERTEX
  8
MY3DLAYER
10
-50.23288486245175
20
11.458980337503023
30
0.0
 70
     32
  0
VERTEX
  8
MY3DLAYER
10
-53.35039230126035
20
9.340324469878981
30
0.0
 70
     32
  0
VERTEX
  8
MY3DLAYER
10
-56.594779553897226
20
7.421599197368096
30
0.0
 70
     32
  0
VERTEX
  8
MY3DLAYER
10
-59.953242506095805
20
5.710376852038762
30
0.0
 70
     32
  0
VERTEX
  8
MY3DLAYER
10
-63.41252683891943
20
4.21341084670487
30
0.0
 70
     32
  0
VERTEX
  8
MY3DLAYER
10
-66.95898033750328
20
2.9366090222907486
30
0.0
 70
     32
  0
VERTEX
  8
MY3DLAYER
10
-70.57860677010878
20
1.8850103322821088
30
0.0
 70
     32
  0
VERTEX
  8
MY3DLAYER
10
-74.2571211248566
20
1.0627649562786647
30
0.0
 70
     32
  0
VERTEX
  8
MY3DLAYER
10
-77.98000598614179
20
0.473117921131318
30
0.0
 70
     32
  0
VERTEX
  8
MY3DLAYER
10
-81.73256882824123
20
0.11839629430371117
30
0.0
 70
     32
  0
VERTEX
  8
MY3DLAYER
10
-85.5
20
0.0
30
0.0
 70
     32
  0
VERTEX
  8
MY3DLAYER
10
-89.26743117175877
20
0.11839629430371117
30
0.0
 70
     32
  0
VERTEX
  8
MY3DLAYER
10
-93.01999401385821
20
0.4731179211313293
30
0.0
 70
     32
  0
VERTEX
  8
MY3DLAYER
10
-96.7428788751434
20
1.0627649562786647
30
0.0
 70
     32
  0
VERTEX
  8
MY3DLAYER
10
-100.42139322989122
20
1.88501033228212
30
0.0
 70
     32
  0
VERTEX
  8
MY3DLAYER
10
-104.04101966249672
20
2.93660902229076
30
0.0
 70
     32
  0
VERTEX
  8
MY3DLAYER
10
-107.58747316108057
20
4.21341084670487
30
0.0
 70
     32
  0
VERTEX
  8
MY3DLAYER
10
-111.0467574939042
20
5.710376852038774
30
0.0
 70
     32
  0
VERTEX
  8
MY3DLAYER
10
-114.40522044610277
20
7.421599197368107
30
0.0
 70
     32
  0
VERTEX
  8
MY3DLAYER
10
-117.64960769873966
20
9.340324469878999
30
0.0
 70
     32
  0
VERTEX
  8
MY3DLAYER
10
-120.76711513754826
20
11.458980337503034
30
0.0
 70
     32
  0
VERTEX
  8
MY3DLAYER
10
-123.74543938492114
20
13.769205433452504
30
0.0
 70
     32
  0
VERTEX
  8
MY3DLAYER
10
-126.57282635572112
20
16.26188235471516
30
0.0
 70
     32
  0
VERTEX
  8
MY3DLAYER
10
-129.2381176452845
20
18.927173644278522
30
0.0
 70
     32
  0
VERTEX
  8
MY3DLAYER
10
-131.73079456654722
20
21.754560615078457
30
0.0
 70
     32
  0
VERTEX
  8
MY3DLAYER
10
-134.04101966249667
20
24.732884862451446
30
0.0
 70
     32
  0
VERTEX
  8
MY3DLAYER
10
-136.1596755301208
20
27.850392301260037
30
0.0
 70
     32
  0
VERTEX
  8
MY3DLAYER
10
-138.0784008026317
20
31.094779553896913
30
0.0
 70
     32
  0
VERTEX
  8
MY3DLAYER
10
-139.78962314796104
20
34.45324250609547
30
0.0
 70
     32
  0
VERTEX
  8
MY3DLAYER
10
-141.286589153295
20
37.912526838919156
30
0.0
 70
     32
  0
VERTEX
  8
MY3DLAYER
10
-142.56339097770913
20
41.458980337502986
30
0.0
 70
     32
  0
VERTEX
  8
MY3DLAYER
10
-143.61498966771782
20
45.07860677010854
30
0.0
 70
     32
  0
VERTEX
  8
MY3DLAYER
10
-144.43723504372127
20
48.75712112485636
30
0.0
 70
     32
  0
VERTEX
  8
MY3DLAYER
10
-145.0268820788686
20
52.48000598614159
30
0.0
 70
     32
  0
VERTEX
  8
MY3DLAYER
10
-145.38160370569628
20
56.23256882824104
30
0.0
 70
     32
  0
VERTEX
  8
MY3DLAYER
10
-145.49999999999997
20
59.999999999999844
30
0.0
 70
     32
  0
VERTEX
  8
MY3DLAYER
10
-145.38160370569628
20
63.76743117175866
30
0.0
 70
     32
  0
VERTEX
  8
MY3DLAYER
10
-145.02688207886865
20
67.51999401385811
30
0.0
 70
     32
  0
VERTEX
  8
MY3DLAYER
10
-144.43723504372136
20
71.24287887514335
30
0.0
 70
     32
  0
VERTEX
  8
MY3DLAYER
10
-143.61498966771788
20
74.92139322989117
30
0.0
 70
     32
  0
VERTEX
  8
MY3DLAYER
10
-142.56339097770922
20
78.54101966249672
30
0.0
 70
     32
  0
VERTEX
  8
MY3DLAYER
10
-141.28658915329513
20
82.08747316108057
30
0.0
 70
     32
  0
VERTEX
  8
MY3DLAYER
10
-139.7896231479612
20
85.54675749390425
30
0.0
 70
     32
  0
VERTEX
  8
MY3DLAYER
10
-138.0784008026319
20
88.90522044610282
30
0.0
 70
     32
  0
VERTEX
  8
MY3DLAYER
10
-136.1596755301209
20
92.14960769873971
30
0.0
 70
     32
  0
VERTEX
  8
MY3DLAYER
10
-134.04101966249686
20
95.26711513754832
30
0.0
 70
     32
  0
VERTEX
  8
MY3DLAYER
10
-131.73079456654742
20
98.24543938492131
30
0.0
 70
     32
  0
VERTEX
  8
MY3DLAYER
10
-129.23811764528475
20
101.07282635572126
30
0.0
 70
     32
  0
VERTEX
  8
MY3DLAYER
10
-126.57282635572139
20
103.73811764528465
30
0.0
 70
     32
  0
VERTEX
  8
MY3DLAYER
10
-123.74543938492141
20
106.2307945665473
30
0.0
 70
     32
  0
VERTEX
  8
MY3DLAYER
10
-120.76711513754843
20
108.54101966249681
30
0.0
 70
     32
  0
VERTEX
  8
MY3DLAYER
10
-117.64960769873983
20
110.65967553012086
30
0.0
 70
     32
  0
VERTEX
  8
MY3DLAYER
10
-114.40522044610296
20
112.57840080263179
30
0.0
 70
     32
  0
VERTEX
  8
MY3DLAYER
10
-111.04675749390438
20
114.28962314796115
30
0.0
 70
     32
  0
VERTEX
  8
MY3DLAYER
10
-107.58747316108075
20
115.78658915329507
30
0.0
 70
     32
  0
VERTEX
  8
MY3DLAYER
10
-104.04101966249691
20
117.06339097770919
30
0.0
 70
     32
  0
VERTEX
  8
MY3DLAYER
10
-100.42139322989131
20
118.11498966771785
30
0.0
 70
     32
  0
VERTEX
  8
MY3DLAYER
10
-96.74287887514349
20
118.93723504372133
30
0.0
 70
     32
  0
VERTEX
  8
MY3DLAYER
10
-93.01999401385831
20
119.52688207886868
30
0.0
 70
     32
  0
VERTEX
  8
MY3DLAYER
10
-89.26743117175877
20
119.8816037056963
30
0.0
 70
     32
  0
VERTEX
  8
MY3DLAYER
10
-85.5
20
120.0
30
0.0
 70
     32
  0
VERTEX
  8
MY3DLAYER
10
-81.73256882824123
20
119.8816037056963
30
0.0
 70
     32
  0
VERTEX
  8
MY3DLAYER
10
-77.9800059861417
20
119.52688207886868
30
0.0
 70
     32
  0
VERTEX
  8
MY3DLAYER
10
-74.25712112485651
20
118.93723504372133
30
0.0
 70
     32
  0
VERTEX
  8
MY3DLAYER
10
-70.57860677010869
20
118.11498966771788
30
0.0
 70
     32
  0
VERTEX
  8
MY3DLAYER
10
-66.95898033750319
20
117.06339097770923
30
0.0
 70
     32
  0
VERTEX
  8
MY3DLAYER
10
-63.41252683891934
20
115.7865891532951
30
0.0
 70
     32
  0
VERTEX
  8
MY3DLAYER
10
-59.95324250609562
20
114.28962314796118
30
0.0
 70
     32
  0
VERTEX
  8
MY3DLAYER
10
-56.59477955389705
20
112.57840080263183
30
0.0
 70
     32
  0
VERTEX
  8
MY3DLAYER
10
-53.35039230126017
20
110.65967553012091
30
0.0
 70
     32
  0
VERTEX
  8
MY3DLAYER
10
-50.23288486245157
20
108.54101966249684
30
0.0
 70
     32
  0
VERTEX
  8
MY3DLAYER
10
-47.25456061507859
20
106.23079456654735
30
0.0
 70
     32
  0
VERTEX
  8
MY3DLAYER
10
-44.42717364427862
20
103.73811764528469
30
0.0
 70
     32
  0
VERTEX
  8
MY3DLAYER
10
-41.76188235471533
20
101.07282635572132
30
0.0
 70
     32
  0
VERTEX
  8
MY3DLAYER
10
-39.26920543345259
20
98.24543938492138
30
0.0
 70
     32
  0
VERTEX
  8
MY3DLAYER
10
-36.95898033750315
20
95.26711513754839
30
0.0
 70
     32
  0
VERTEX
  8
MY3DLAYER
10
-34.840324469879114
20
92.1496076987398
30
0.0
 70
     32
  0
VERTEX
  8
MY3DLAYER
10
-32.9215991973681
20
88.90522044610292
30
0.0
 70
     32
  0
VERTEX
  8
MY3DLAYER
10
-31.210376852038785
20
85.54675749390437
30
0.0
 70
     32
  0
VERTEX
  8
MY3DLAYER
10
-29.713410846704893
20
82.08747316108068
30
0.0
 70
     32
  0
VERTEX
  8
MY3DLAYER
10
-28.436609022290703
20
78.54101966249684
30
0.0
 70
     32
  0
VERTEX
  8
MY3DLAYER
10
-27.385010332282086
20
74.9213932298913
30
0.0
 70
     32
  0
VERTEX
  8
MY3DLAYER
10
-26.562764956278652
20
71.24287887514348
30
0.0
 70
     32
  0
VERTEX
  8
MY3DLAYER
10
-25.973117921131305
20
67.51999401385825
30
0.0
 70
     32
  0
VERTEX
  8
MY3DLAYER
10
-25.618396294303675
20
63.7674311717588
30
0.0
 70
     32
  0
VERTEX
  8
MY3DLAYER
10
-25.49999999999993
20
60.0
30
0.0
 70
     32
  0
SEQEND
  0
POLYLINE
 8
Layer0
 66
     1
70
    8
 10
0.0
 20
 0.0
 30
0.0
  0
VERTEX
  8
MY3DLAYER
10
-110.5
20
82.5
30
0.0
 70
     32
  0
VERTEX
  8
MY3DLAYER
10
-135.5
20
82.5
30
0.0
 70
     32
  0
VERTEX
  8
MY3DLAYER
10
-135.5
20
37.50000000000001
30
0.0
 70
     32
  0
VERTEX
  8
MY3DLAYER
10
-110.5
20
37.50000000000001
30
0.0
 70
     32
  0
VERTEX
  8
MY3DLAYER
10
-110.5
20
82.5
30
0.0
 70
     32
  0
SEQEND
  0
POLYLINE
 8
Layer0
 66
     1
70
    8
 10
0.0
 20
 0.0
 30
0.0
  0
VERTEX
  8
MY3DLAYER
10
-35.5
20
37.50000000000001
30
0.0
 70
     32
  0
VERTEX
  8
MY3DLAYER
10
-35.5
20
82.5
30
0.0
 70
     32
  0
VERTEX
  8
MY3DLAYER
10
-60.5
20
82.5
30
0.0
 70
     32
  0
VERTEX
  8
MY3DLAYER
10
-60.5
20
37.50000000000001
30
0.0
 70
     32
  0
VERTEX
  8
MY3DLAYER
10
-35.5
20
37.50000000000001
30
0.0
 70
     32
  0
SEQEND
  0
POLYLINE
 8
Layer0
 66
     1
70
    8
 10
0.0
 20
 0.0
 30
0.0
  0
VERTEX
  8
MY3DLAYER
10
-120.11456165517215
20
101.44963349931504
30
0.0
 70
     32
  0
VERTEX
  8
MY3DLAYER
10
-120.50288790633
20
101.49999721999643
30
0.0
 70
     32
  0
VERTEX
  8
MY3DLAYER
10
-120.8910173514439
20
101.44813860899768
30
0.0
 70
     32
  0
VERTEX
  8
MY3DLAYER
10
-121.2524996102437
20
101.29759174495794
30
0.0
 70
     32
  0
VERTEX
  8
MY3DLAYER
10
-121.56270026416975
20
101.05861614787106
30
0.0
 70
     32
  0
VERTEX
  8
MY3DLAYER
10
-121.80047965128793
20
100.74749760975268
30
0.0
 70
     32
  0
VERTEX
  8
MY3DLAYER
10
-121.94963349931498
20
100.38543834482785
30
0.0
 70
     32
  0
VERTEX
  8
MY3DLAYER
10
-121.99999721999637
20
99.99711209367
30
0.0
 70
     32
  0
VERTEX
  8
MY3DLAYER
10
-121.94813860899767
20
99.60898264855602
30
0.0
 70
     32
  0
VERTEX
  8
MY3DLAYER
10
-121.7975917449579
20
99.24750038975625
30
0.0
 70
     32
  0
VERTEX
  8
MY3DLAYER
10
-121.55861614787105
20
98.93729973583017
30
0.0
 70
     32
  0
VERTEX
  8
MY3DLAYER
10
-121.24749760975266
20
98.69952034871206
30
0.0
 70
     32
  0
VERTEX
  8
MY3DLAYER
10
-120.8854383448278
20
98.55036650068496
30
0.0
 70
     32
  0
VERTEX
  8
MY3DLAYER
10
-120.49711209366995
20
98.50000278000357
30
0.0
 70
     32
  0
VERTEX
  8
MY3DLAYER
10
-120.10898264855605
20
98.55186139100232
30
0.0
 70
     32
  0
VERTEX
  8
MY3DLAYER
10
-119.74750038975627
20
98.70240825504206
30
0.0
 70
     32
  0
VERTEX
  8
MY3DLAYER
10
-119.43729973583012
20
98.94138385212894
30
0.0
 70
     32
  0
VERTEX
  8
MY3DLAYER
10
-119.19952034871204
20
99.25250239024733
30
0.0
 70
     32
  0
VERTEX
  8
MY3DLAYER
10
-119.05036650068499
20
99.61456165517215
30
0.0
 70
     32
  0
VERTEX
  8
MY3DLAYER
10
-119.0000027800036
20
100.00288790633002
30
0.0
 70
     32
  0
VERTEX
  8
MY3DLAYER
10
-119.05186139100229
20
100.39101735144398
30
0.0
 70
     32
  0
VERTEX
  8
MY3DLAYER
10
-119.20240825504206
20
100.75249961024376
30
0.0
 70
     32
  0
VERTEX
  8
MY3DLAYER
10
-119.44138385212891
20
101.06270026416983
30
0.0
 70
     32
  0
VERTEX
  8
MY3DLAYER
10
-119.75250239024732
20
101.30047965128796
30
0.0
 70
     32
  0
VERTEX
  8
MY3DLAYER
10
-120.11456165517215
20
101.44963349931504
30
0.0
 70
     32
  0
SEQEND
  0
POLYLINE
 8
Layer0
 66
     1
70
    8
 10
0.0
 20
 0.0
 30
0.0
  0
VERTEX
  8
MY3DLAYER
10
-49.08406184586475
20
100.49509508547777
30
0.0
 70
     32
  0
VERTEX
  8
MY3DLAYER
10
-49.26044880575107
20
100.84469689050927
30
0.0
 70
     32
  0
VERTEX
  8
MY3DLAYER
10
-49.52130913107012
20
101.13673399838017
30
0.0
 70
     32
  0
VERTEX
  8
MY3DLAYER
10
-49.84886562174367
20
101.35130456280322
30
0.0
 70
     32
  0
VERTEX
  8
MY3DLAYER
10
-50.22079584424492
20
101.4737859544076
30
0.0
 70
     32
  0
VERTEX
  8
MY3DLAYER
10
-50.611753368554304
20
101.49583126876556
30
0.0
 70
     32
  0
VERTEX
  8
MY3DLAYER
10
-50.995095085477715
20
101.41593815413519
30
0.0
 70
     32
  0
VERTEX
  8
MY3DLAYER
10
-51.34469689050927
20
101.23955119424895
30
0.0
 70
     32
  0
VERTEX
  8
MY3DLAYER
10
-51.63673399838018
20
100.97869086892985
30
0.0
 70
     32
  0
VERTEX
  8
MY3DLAYER
10
-51.85130456280317
20
100.6511343782563
30
0.0
 70
     32
  0
VERTEX
  8
MY3DLAYER
10
-51.97378595440762
20
100.27920415575502
30
0.0
 70
     32
  0
VERTEX
  8
MY3DLAYER
10
-51.99583126876553
20
99.88824663144574
30
0.0
 70
     32
  0
VERTEX
  8
MY3DLAYER
10
-51.9159381541352
20
99.50490491452223
30
0.0
 70
     32
  0
VERTEX
  8
MY3DLAYER
10
-51.73955119424888
20
99.15530310949075
30
0.0
 70
     32
  0
VERTEX
  8
MY3DLAYER
10
-51.47869086892983
20
98.86326600161983
30
0.0
 70
     32
  0
VERTEX
  8
MY3DLAYER
10
-51.15113437825628
20
98.64869543719678
30
0.0
 70
     32
  0
VERTEX
  8
MY3DLAYER
10
-50.77920415575503
20
98.5262140455924
30
0.0
 70
     32
  0
VERTEX
  8
MY3DLAYER
10
-50.38824663144573
20
98.50416873123444
30
0.0
 70
     32
  0
VERTEX
  8
MY3DLAYER
10
-50.004904914522236
20
98.58406184586481
30
0.0
 70
     32
  0
VERTEX
  8
MY3DLAYER
10
-49.65530310949068
20
98.76044880575107
30
0.0
 70
     32
  0
VERTEX
  8
MY3DLAYER
10
-49.36326600161977
20
99.02130913107017
30
0.0
 70
     32
  0
VERTEX
  8
MY3DLAYER
10
-49.14869543719678
20
99.34886562174371
30
0.0
 70
     32
  0
VERTEX
  8
MY3DLAYER
10
-49.02621404559233
20
99.72079584424499
30
0.0
 70
     32
  0
VERTEX
  8
MY3DLAYER
10
-49.00416873123442
20
100.11175336855429
30
0.0
 70
     32
  0
VERTEX
  8
MY3DLAYER
10
-49.08406184586475
20
100.49509508547777
30
0.0
 70
     32
  0
SEQEND
  0
POLYLINE
 8
Layer0
 66
     1
70
    8
 10
0.0
 20
 0.0
 30
0.0
  0
VERTEX
  8
MY3DLAYER
10
-49.34173792086859
20
19.046884605073323
30
0.0
 70
     32
  0
VERTEX
  8
MY3DLAYER
10
-49.134520327768286
20
19.379141509905864
30
0.0
 70
     32
  0
VERTEX
  8
MY3DLAYER
10
-49.020357917768656
20
19.753708894821152
30
0.0
 70
     32
  0
VERTEX
  8
MY3DLAYER
10
-49.00703067044895
20
20.14506061153909
30
0.0
 70
     32
  0
VERTEX
  8
MY3DLAYER
10
-49.09544681568976
20
20.526526687304628
30
0.0
 70
     32
  0
VERTEX
  8
MY3DLAYER
10
-49.27958093930732
20
20.872110839456848
30
0.0
 70
     32
  0
VERTEX
  8
MY3DLAYER
10
-49.546884605073274
20
21.15826207913139
30
0.0
 70
     32
  0
VERTEX
  8
MY3DLAYER
10
-49.87914150990583
20
21.365479672231714
30
0.0
 70
     32
  0
VERTEX
  8
MY3DLAYER
10
-50.25370889482111
20
21.479642082231308
30
0.0
 70
     32
  0
VERTEX
  8
MY3DLAYER
10
-50.64506061153906
20
21.492969329550984
30
0.0
 70
     32
  0
VERTEX
  8
MY3DLAYER
10
-51.02652668730463
20
21.404553184310235
30
0.0
 70
     32
  0
VERTEX
  8
MY3DLAYER
10
-51.372110839456816
20
21.220419060692635
30
0.0
 70
     32
  0
VERTEX
  8
MY3DLAYER
10
-51.65826207913136
20
20.95311539492668
30
0.0
 70
     32
  0
VERTEX
  8
MY3DLAYER
10
-51.865479672231665
20
20.620858490094143
30
0.0
 70
     32
  0
VERTEX
  8
MY3DLAYER
10
-51.979642082231294
20
20.246291105178848
30
0.0
 70
     32
  0
VERTEX
  8
MY3DLAYER
10
-51.99296932955091
20
19.854939388460917
30
0.0
 70
     32
  0
VERTEX
  8
MY3DLAYER
10
-51.90455318431019
20
19.473473312695376
30
0.0
 70
     32
  0
VERTEX
  8
MY3DLAYER
10
-51.72041906069263
20
19.12788916054316
30
0.0
 70
     32
  0
VERTEX
  8
MY3DLAYER
10
-51.45311539492668
20
18.841737920868617
30
0.0
 70
     32
  0
VERTEX
  8
MY3DLAYER
10
-51.12085849009412
20
18.63452032776829
30
0.0
 70
     32
  0
VERTEX
  8
MY3DLAYER
10
-50.74629110517884
20
18.5203579177687
30
0.0
 70
     32
  0
VERTEX
  8
MY3DLAYER
10
-50.35493938846089
20
18.50703067044902
30
0.0
 70
     32
  0
VERTEX
  8
MY3DLAYER
10
-49.973473312695404
20
18.59544681568977
30
0.0
 70
     32
  0
VERTEX
  8
MY3DLAYER
10
-49.627889160543134
20
18.779580939307372
30
0.0
 70
     32
  0
VERTEX
  8
MY3DLAYER
10
-49.34173792086859
20
19.046884605073323
30
0.0
 70
     32
  0
SEQEND
  0
POLYLINE
 8
Layer0
 66
     1
70
    8
 10
0.0
 20
 0.0
 30
0.0
  0
VERTEX
  8
MY3DLAYER
10
-119.15428969957813
20
20.662618885437603
30
0.0
 70
     32
  0
VERTEX
  8
MY3DLAYER
10
-119.37164205331521
20
20.98833614937086
30
0.0
 70
     32
  0
VERTEX
  8
MY3DLAYER
10
-119.66589013641905
20
21.246699938027213
30
0.0
 70
     32
  0
VERTEX
  8
MY3DLAYER
10
-120.01698142829433
20
21.420103186176068
30
0.0
 70
     32
  0
VERTEX
  8
MY3DLAYER
10
-120.40098963760529
20
21.496728749018498
30
0.0
 70
     32
  0
VERTEX
  8
MY3DLAYER
10
-120.79174523949122
20
21.471354721076526
30
0.0
 70
     32
  0
VERTEX
  8
MY3DLAYER
10
-121.16261888543758
20
21.345710300421832
30
0.0
 70
     32
  0
VERTEX
  8
MY3DLAYER
10
-121.4883361493709
20
21.12835794668481
30
0.0
 70
     32
  0
VERTEX
  8
MY3DLAYER
10
-121.74669993802725
20
20.834109863580895
30
0.0
 70
     32
  0
VERTEX
  8
MY3DLAYER
10
-121.920103186176
20
20.48301857170566
30
0.0
 70
     32
  0
VERTEX
  8
MY3DLAYER
10
-121.99672874901852
20
20.09901036239462
30
0.0
 70
     32
  0
VERTEX
  8
MY3DLAYER
10
-121.97135472107647
20
19.708254760508748
30
0.0
 70
     32
  0
VERTEX
  8
MY3DLAYER
10
-121.84571030042184
20
19.337381114562394
30
0.0
 70
     32
  0
VERTEX
  8
MY3DLAYER
10
-121.62835794668474
20
19.011663850629134
30
0.0
 70
     32
  0
VERTEX
  8
MY3DLAYER
10
-121.33410986358092
20
18.753300061972784
30
0.0
 70
     32
  0
VERTEX
  8
MY3DLAYER
10
-120.98301857170564
20
18.579896813823925
30
0.0
 70
     32
  0
VERTEX
  8
MY3DLAYER
10
-120.59901036239458
20
18.503271250981495
30
0.0
 70
     32
  0
VERTEX
  8
MY3DLAYER
10
-120.20825476050874
20
18.528645278923467
30
0.0
 70
     32
  0
VERTEX
  8
MY3DLAYER
10
-119.83738111456239
20
18.65428969957816
30
0.0
 70
     32
  0
VERTEX
  8
MY3DLAYER
10
-119.51166385062906
20
18.87164205331518
30
0.0
 70
     32
  0
VERTEX
  8
MY3DLAYER
10
-119.25330006197272
20
19.1658901364191
30
0.0
 70
     32
  0
VERTEX
  8
MY3DLAYER
10
-119.07989681382388
20
19.516981428294333
30
0.0
 70
     32
  0
VERTEX
  8
MY3DLAYER
10
-119.00327125098144
20
19.900989637605374
30
0.0
 70
     32
  0
VERTEX
  8
MY3DLAYER
10
-119.0286452789235
20
20.29174523949125
30
0.0
 70
     32
  0
VERTEX
  8
MY3DLAYER
10
-119.15428969957813
20
20.662618885437603
30
0.0
 70
     32
  0
SEQEND
  0
POLYLINE
 8
Layer0
 66
     1
70
    8
 10
0.0
 20
 0.0
 30
0.0
  0
VERTEX
  8
MY3DLAYER
10
-93.58923048454132
20
111.379422863406
30
0.0
 70
     32
  0
VERTEX
  8
MY3DLAYER
10
-93.92617385095461
20
111.17991609778318
30
0.0
 70
     32
  0
VERTEX
  8
MY3DLAYER
10
-94.2
20
110.9
30
0.0
 70
     32
  0
VERTEX
  8
MY3DLAYER
10
-94.39204813213917
20
110.55875038953714
30
0.0
 70
     32
  0
VERTEX
  8
MY3DLAYER
10
-94.4892304845413
20
110.179422863406
30
0.0
 70
     32
  0
VERTEX
  8
MY3DLAYER
10
-94.48492424049174
20
109.78786796564404
30
0.0
 70
     32
  0
VERTEX
  8
MY3DLAYER
10
-94.37942286340599
20
109.41076951545867
30
0.0
 70
     32
  0
VERTEX
  8
MY3DLAYER
10
-94.1799160977832
20
109.07382614904537
30
0.0
 70
     32
  0
VERTEX
  8
MY3DLAYER
10
-93.89999999999999
20
108.8
30
0.0
 70
     32
  0
VERTEX
  8
MY3DLAYER
10
-93.55875038953712
20
108.60795186786086
30
0.0
 70
     32
  0
VERTEX
  8
MY3DLAYER
10
-93.17942286340599
20
108.51076951545869
30
0.0
 70
     32
  0
VERTEX
  8
MY3DLAYER
10
-92.78786796564405
20
108.51507575950826
30
0.0
 70
     32
  0
VERTEX
  8
MY3DLAYER
10
-92.4107695154587
20
108.62057713659401
30
0.0
 70
     32
  0
VERTEX
  8
MY3DLAYER
10
-92.0738261490454
20
108.82008390221682
30
0.0
 70
     32
  0
VERTEX
  8
MY3DLAYER
10
-91.80000000000001
20
109.10000000000001
30
0.0
 70
     32
  0
VERTEX
  8
MY3DLAYER
10
-91.60795186786085
20
109.44124961046286
30
0.0
 70
     32
  0
VERTEX
  8
MY3DLAYER
10
-91.51076951545863
20
109.820577136594
30
0.0
 70
     32
  0
VERTEX
  8
MY3DLAYER
10
-91.51507575950819
20
110.21213203435596
30
0.0
 70
     32
  0
VERTEX
  8
MY3DLAYER
10
-91.62057713659404
20
110.58923048454133
30
0.0
 70
     32
  0
VERTEX
  8
MY3DLAYER
10
-91.82008390221681
20
110.92617385095463
30
0.0
 70
     32
  0
VERTEX
  8
MY3DLAYER
10
-92.09999999999994
20
111.2
30
0.0
 70
     32
  0
VERTEX
  8
MY3DLAYER
10
-92.44124961046289
20
111.39204813213914
30
0.0
 70
     32
  0
VERTEX
  8
MY3DLAYER
10
-92.82057713659394
20
111.48923048454131
30
0.0
 70
     32
  0
VERTEX
  8
MY3DLAYER
10
-93.21213203435597
20
111.48492424049175
30
0.0
 70
     32
  0
VERTEX
  8
MY3DLAYER
10
-93.58923048454132
20
111.379422863406
30
0.0
 70
     32
  0
SEQEND
  0
POLYLINE
 8
Layer0
 66
     1
70
    8
 10
0.0
 20
 0.0
 30
0.0
  0
VERTEX
  8
MY3DLAYER
10
-79.15280455142174
20
109.04029084290012
30
0.0
 70
     32
  0
VERTEX
  8
MY3DLAYER
10
-78.8651326812651
20
108.77462436624232
30
0.0
 70
     32
  0
VERTEX
  8
MY3DLAYER
10
-78.51850344857958
20
108.59246521399609
30
0.0
 70
     32
  0
VERTEX
  8
MY3DLAYER
10
-78.1365390627409
20
108.50622723135483
30
0.0
 70
     32
  0
VERTEX
  8
MY3DLAYER
10
-77.74526976541776
20
108.52178739432053
30
0.0
 70
     32
  0
VERTEX
  8
MY3DLAYER
10
-77.37135991261991
20
108.63808530350144
30
0.0
 70
     32
  0
VERTEX
  8
MY3DLAYER
10
-77.04029084290009
20
108.84719544857828
30
0.0
 70
     32
  0
VERTEX
  8
MY3DLAYER
10
-76.77462436624234
20
109.13486731873492
30
0.0
 70
     32
  0
VERTEX
  8
MY3DLAYER
10
-76.5924652139961
20
109.48149655142039
30
0.0
 70
     32
  0
VERTEX
  8
MY3DLAYER
10
-76.5062272313548
20
109.86346093725913
30
0.0
 70
     32
  0
VERTEX
  8
MY3DLAYER
10
-76.5217873943205
20
110.25473023458218
30
0.0
 70
     32
  0
VERTEX
  8
MY3DLAYER
10
-76.63808530350143
20
110.62864008738006
30
0.0
 70
     32
  0
VERTEX
  8
MY3DLAYER
10
-76.84719544857825
20
110.95970915709988
30
0.0
 70
     32
  0
VERTEX
  8
MY3DLAYER
10
-77.13486731873489
20
111.2253756337577
30
0.0
 70
     32
  0
VERTEX
  8
MY3DLAYER
10
-77.4814965514204
20
111.40753478600391
30
0.0
 70
     32
  0
VERTEX
  8
MY3DLAYER
10
-77.86346093725909
20
111.49377276864517
30
0.0
 70
     32
  0
VERTEX
  8
MY3DLAYER
10
-78.25473023458213
20
111.47821260567947
30
0.0
 70
     32
  0
VERTEX
  8
MY3DLAYER
10
-78.62864008738008
20
111.36191469649856
30
0.0
 70
     32
  0
VERTEX
  8
MY3DLAYER
10
-78.9597091570999
20
111.15280455142172
30
0.0
 70
     32
  0
VERTEX
  8
MY3DLAYER
10
-79.22537563375765
20
110.86513268126508
30
0.0
 70
     32
  0
VERTEX
  8
MY3DLAYER
10
-79.40753478600388
20
110.51850344857961
30
0.0
 70
     32
  0
VERTEX
  8
MY3DLAYER
10
-79.49377276864519
20
110.13653906274088
30
0.0
 70
     32
  0
VERTEX
  8
MY3DLAYER
10
-79.47821260567949
20
109.74526976541782
30
0.0
 70
     32
  0
VERTEX
  8
MY3DLAYER
10
-79.36191469649854
20
109.37135991261994
30
0.0
 70
     32
  0
VERTEX
  8
MY3DLAYER
10
-79.15280455142174
20
109.04029084290012
30
0.0
 70
     32
  0
SEQEND
  0
POLYLINE
 8
Layer0
 66
     1
70
    8
 10
0.0
 20
 0.0
 30
0.0
  0
VERTEX
  8
MY3DLAYER
10
-92.14714653858402
20
11.233953391887585
30
0.0
 70
     32
  0
VERTEX
  8
MY3DLAYER
10
-92.49557745416763
20
11.412642168157262
30
0.0
 70
     32
  0
VERTEX
  8
MY3DLAYER
10
-92.8783839326521
20
11.495061715168587
30
0.0
 70
     32
  0
VERTEX
  8
MY3DLAYER
10
-93.26947834514621
20
11.475595276997478
30
0.0
 70
     32
  0
VERTEX
  8
MY3DLAYER
10
-93.64220825375259
20
11.355569459235483
30
0.0
 70
     32
  0
VERTEX
  8
MY3DLAYER
10
-93.97117273116517
20
11.14316382301104
30
0.0
 70
     32
  0
VERTEX
  8
MY3DLAYER
10
-94.23395339188758
20
10.852853461415938
30
0.0
 70
     32
  0
VERTEX
  8
MY3DLAYER
10
-94.41264216815726
20
10.50442254583232
30
0.0
 70
     32
  0
VERTEX
  8
MY3DLAYER
10
-94.49506171516859
20
10.121616067347901
30
0.0
 70
     32
  0
VERTEX
  8
MY3DLAYER
10
-94.47559527699745
20
9.730521654853781
30
0.0
 70
     32
  0
VERTEX
  8
MY3DLAYER
10
-94.3555694592355
20
9.357791746247349
30
0.0
 70
     32
  0
VERTEX
  8
MY3DLAYER
10
-94.14316382301098
20
9.028827268834846
30
0.0
 70
     32
  0
VERTEX
  8
MY3DLAYER
10
-93.8528534614159
20
8.766046608112429
30
0.0
 70
     32
  0
VERTEX
  8
MY3DLAYER
10
-93.5044225458323
20
8.587357831842747
30
0.0
 70
     32
  0
VERTEX
  8
MY3DLAYER
10
-93.12161606734792
20
8.50493828483142
30
0.0
 70
     32
  0
VERTEX
  8
MY3DLAYER
10
-92.73052165485372
20
8.524404723002537
30
0.0
 70
     32
  0
VERTEX
  8
MY3DLAYER
10
-92.35779174624734
20
8.644430540764521
30
0.0
 70
     32
  0
VERTEX
  8
MY3DLAYER
10
-92.02882726883485
20
8.856836176988969
30
0.0
 70
     32
  0
VERTEX
  8
MY3DLAYER
10
-91.76604660811243
20
9.14714653858407
30
0.0
 70
     32
  0
VERTEX
  8
MY3DLAYER
10
-91.58735783184275
20
9.49557745416769
30
0.0
 70
     32
  0
VERTEX
  8
MY3DLAYER
10
-91.50493828483144
20
9.878383932652106
30
0.0
 70
     32
  0
VERTEX
  8
MY3DLAYER
10
-91.52440472300248
20
10.269478345146227
30
0.0
 70
     32
  0
VERTEX
  8
MY3DLAYER
10
-91.64443054076453
20
10.642208253752653
30
0.0
 70
     32
  0
VERTEX
  8
MY3DLAYER
10
-91.85683617698895
20
10.971172731165161
30
0.0
 70
     32
  0
VERTEX
  8
MY3DLAYER
10
-92.14714653858402
20
11.233953391887585
30
0.0
 70
     32
  0
SEQEND
  0
POLYLINE
 8
Layer0
 66
     1
70
    8
 10
0.0
 20
 0.0
 30
0.0
  0
VERTEX
  8
MY3DLAYER
10
-79.50000000000001
20
10.000000000000004
30
0.0
 70
     32
  0
VERTEX
  8
MY3DLAYER
10
-79.4488887394336
20
9.611771432346226
30
0.0
 70
     32
  0
VERTEX
  8
MY3DLAYER
10
-79.29903810567667
20
9.250000000000005
30
0.0
 70
     32
  0
VERTEX
  8
MY3DLAYER
10
-79.06066017177979
20
8.93933982822018
30
0.0
 70
     32
  0
VERTEX
  8
MY3DLAYER
10
-78.75
20
8.700961894323342
30
0.0
 70
     32
  0
VERTEX
  8
MY3DLAYER
10
-78.3882285676538
20
8.551111260566401
30
0.0
 70
     32
  0
VERTEX
  8
MY3DLAYER
10
-77.99999999999999
20
8.500000000000007
30
0.0
 70
     32
  0
VERTEX
  8
MY3DLAYER
10
-77.61177143234619
20
8.551111260566401
30
0.0
 70
     32
  0
VERTEX
  8
MY3DLAYER
10
-77.24999999999999
20
8.700961894323342
30
0.0
 70
     32
  0
VERTEX
  8
MY3DLAYER
10
-76.93933982822018
20
8.93933982822018
30
0.0
 70
     32
  0
VERTEX
  8
MY3DLAYER
10
-76.70096189432331
20
9.250000000000005
30
0.0
 70
     32
  0
VERTEX
  8
MY3DLAYER
10
-76.55111126056639
20
9.61177143234622
30
0.0
 70
     32
  0
VERTEX
  8
MY3DLAYER
10
-76.49999999999997
20
10.000000000000004
30
0.0
 70
     32
  0
VERTEX
  8
MY3DLAYER
10
-76.55111126056639
20
10.388228567653783
30
0.0
 70
     32
  0
VERTEX
  8
MY3DLAYER
10
-76.70096189432331
20
10.750000000000004
30
0.0
 70
     32
  0
VERTEX
  8
MY3DLAYER
10
-76.93933982822018
20
11.060660171779828
30
0.0
 70
     32
  0
VERTEX
  8
MY3DLAYER
10
-77.24999999999999
20
11.29903810567666
30
0.0
 70
     32
  0
VERTEX
  8
MY3DLAYER
10
-77.61177143234619
20
11.448888739433606
30
0.0
 70
     32
  0
VERTEX
  8
MY3DLAYER
10
-77.99999999999999
20
11.500000000000002
30
0.0
 70
     32
  0
VERTEX
  8
MY3DLAYER
10
-78.3882285676538
20
11.448888739433606
30
0.0
 70
     32
  0
VERTEX
  8
MY3DLAYER
10
-78.75
20
11.29903810567666
30
0.0
 70
     32
  0
VERTEX
  8
MY3DLAYER
10
-79.06066017177979
20
11.060660171779828
30
0.0
 70
     32
  0
VERTEX
  8
MY3DLAYER
10
-79.29903810567667
20
10.750000000000004
30
0.0
 70
     32
  0
VERTEX
  8
MY3DLAYER
10
-79.4488887394336
20
10.388228567653789
30
0.0
 70
     32
  0
VERTEX
  8
MY3DLAYER
10
-79.50000000000001
20
10.000000000000004
30
0.0
 70
     32
  0
SEQEND
  0
POLYLINE
 8
Layer0
 66
     1
70
    8
 10
0.0
 20
 0.0
 30
0.0
  0
VERTEX
  8
MY3DLAYER
10
-105.01446159682355
20
69.87421533905606
30
0.0
 70
     32
  0
VERTEX
  8
MY3DLAYER
10
-105.25726949598516
20
69.97009375960303
30
0.0
 70
     32
  0
VERTEX
  8
MY3DLAYER
10
-105.51661907786429
20
69.99986189358877
30
0.0
 70
     32
  0
VERTEX
  8
MY3DLAYER
10
-105.77483609705128
20
69.96149109187637
30
0.0
 70
     32
  0
VERTEX
  8
MY3DLAYER
10
-106.01432349041237
20
69.85759626119174
30
0.0
 70
     32
  0
VERTEX
  8
MY3DLAYER
10
-106.21876058786157
20
69.69525766255173
30
0.0
 70
     32
  0
VERTEX
  8
MY3DLAYER
10
-106.37421533905605
20
69.48553840317642
30
0.0
 70
     32
  0
VERTEX
  8
MY3DLAYER
10
-106.47009375960303
20
69.24273050401479
30
0.0
 70
     32
  0
VERTEX
  8
MY3DLAYER
10
-106.49986189358877
20
68.98338092213568
30
0.0
 70
     32
  0
VERTEX
  8
MY3DLAYER
10
-106.46149109187637
20
68.7251639029487
30
0.0
 70
     32
  0
VERTEX
  8
MY3DLAYER
10
-106.35759626119172
20
68.48567650958763
30
0.0
 70
     32
  0
VERTEX
  8
MY3DLAYER
10
-106.19525766255173
20
68.28123941213843
30
0.0
 70
     32
  0
VERTEX
  8
MY3DLAYER
10
-105.98553840317638
20
68.12578466094395
30
0.0
 70
     32
  0
VERTEX
  8
MY3DLAYER
10
-105.74273050401477
20
68.02990624039698
30
0.0
 70
     32
  0
VERTEX
  8
MY3DLAYER
10
-105.48338092213564
20
68.00013810641121
30
0.0
 70
     32
  0
VERTEX
  8
MY3DLAYER
10
-105.22516390294865
20
68.03850890812363
30
0.0
 70
     32
  0
VERTEX
  8
MY3DLAYER
10
-104.98567650958756
20
68.14240373880827
30
0.0
 70
     32
  0
VERTEX
  8
MY3DLAYER
10
-104.78123941213845
20
68.30474233744827
30
0.0
 70
     32
  0
VERTEX
  8
MY3DLAYER
10
-104.62578466094389
20
68.5144615968236
30
0.0
 70
     32
  0
VERTEX
  8
MY3DLAYER
10
-104.52990624039698
20
68.75726949598521
30
0.0
 70
     32
  0
VERTEX
  8
MY3DLAYER
10
-104.50013810641124
20
69.01661907786432
30
0.0
 70
     32
  0
VERTEX
  8
MY3DLAYER
10
-104.53850890812365
20
69.2748360970513
30
0.0
 70
     32
  0
VERTEX
  8
MY3DLAYER
10
-104.64240373880821
20
69.51432349041237
30
0.0
 70
     32
  0
VERTEX
  8
MY3DLAYER
10
-104.80474233744829
20
69.71876058786158
30
0.0
 70
     32
  0
VERTEX
  8
MY3DLAYER
10
-105.01446159682355
20
69.87421533905606
30
0.0
 70
     32
  0
SEQEND
  0
POLYLINE
 8
Layer0
 66
     1
70
    8
 10
0.0
 20
 0.0
 30
0.0
  0
VERTEX
  8
MY3DLAYER
10
-105.5171245934099
20
50.000146636600874
30
0.0
 70
     32
  0
VERTEX
  8
MY3DLAYER
10
-105.25775999428178
20
50.02978364287668
30
0.0
 70
     32
  0
VERTEX
  8
MY3DLAYER
10
-105.01490365122287
20
50.1255392905321
30
0.0
 70
     32
  0
VERTEX
  8
MY3DLAYER
10
-104.8051058226735
20
50.2808879904231
30
0.0
 70
     32
  0
VERTEX
  8
MY3DLAYER
10
-104.64266388394199
20
50.485242985377994
30
0.0
 70
     32
  0
VERTEX
  8
MY3DLAYER
10
-104.53864798470487
20
50.72467782020318
30
0.0
 70
     32
  0
VERTEX
  8
MY3DLAYER
10
-104.50014663660086
20
50.98287540659011
30
0.0
 70
     32
  0
VERTEX
  8
MY3DLAYER
10
-104.52978364287664
20
51.242240005718195
30
0.0
 70
     32
  0
VERTEX
  8
MY3DLAYER
10
-104.62553929053205
20
51.48509634877713
30
0.0
 70
     32
  0
VERTEX
  8
MY3DLAYER
10
-104.78088799042304
20
51.69489417732651
30
0.0
 70
     32
  0
VERTEX
  8
MY3DLAYER
10
-104.98524298537795
20
51.85733611605801
30
0.0
 70
     32
  0
VERTEX
  8
MY3DLAYER
10
-105.2246778202032
20
51.96135201529509
30
0.0
 70
     32
  0
VERTEX
  8
MY3DLAYER
10
-105.48287540659011
20
51.999853363399126
30
0.0
 70
     32
  0
VERTEX
  8
MY3DLAYER
10
-105.74224000571814
20
51.97021635712333
30
0.0
 70
     32
  0
VERTEX
  8
MY3DLAYER
10
-105.98509634877706
20
51.87446070946791
30
0.0
 70
     32
  0
VERTEX
  8
MY3DLAYER
10
-106.19489417732652
20
51.71911200957689
30
0.0
 70
     32
  0
VERTEX
  8
MY3DLAYER
10
-106.35733611605802
20
51.51475701462201
30
0.0
 70
     32
  0
VERTEX
  8
MY3DLAYER
10
-106.46135201529506
20
51.275322179796824
30
0.0
 70
     32
  0
VERTEX
  8
MY3DLAYER
10
-106.49985336339907
20
51.017124593409896
30
0.0
 70
     32
  0
VERTEX
  8
MY3DLAYER
10
-106.47021635712329
20
50.757759994281805
30
0.0
 70
     32
  0
VERTEX
  8
MY3DLAYER
10
-106.37446070946788
20
50.51490365122288
30
0.0
 70
     32
  0
VERTEX
  8
MY3DLAYER
10
-106.21911200957689
20
50.3051058226735
30
0.0
 70
     32
  0
VERTEX
  8
MY3DLAYER
10
-106.01475701462198
20
50.142663883941985
30
0.0
 70
     32
  0
VERTEX
  8
MY3DLAYER
10
-105.77532217979683
20
50.038647984704916
30
0.0
 70
     32
  0
VERTEX
  8
MY3DLAYER
10
-105.5171245934099
20
50.000146636600874
30
0.0
 70
     32
  0
SEQEND
  0
POLYLINE
 8
Layer0
 66
     1
70
    8
 10
0.0
 20
 0.0
 30
0.0
  0
VERTEX
  8
MY3DLAYER
10
-64.52974195187058
20
68.75792703571017
30
0.0
 70
     32
  0
VERTEX
  8
MY3DLAYER
10
-64.50014959968428
20
69.017296733466
30
0.0
 70
     32
  0
VERTEX
  8
MY3DLAYER
10
-64.53869539994868
20
69.27548768742032
30
0.0
 70
     32
  0
VERTEX
  8
MY3DLAYER
10
-64.64275252007555
20
69.51490461074188
30
0.0
 70
     32
  0
VERTEX
  8
MY3DLAYER
10
-64.80522963929087
20
69.71923163576149
30
0.0
 70
     32
  0
VERTEX
  8
MY3DLAYER
10
-65.01505421042623
20
69.87454421339041
30
0.0
 70
     32
  0
VERTEX
  8
MY3DLAYER
10
-65.25792703571015
20
69.97025804812944
30
0.0
 70
     32
  0
VERTEX
  8
MY3DLAYER
10
-65.517296733466
20
69.99985040031568
30
0.0
 70
     32
  0
VERTEX
  8
MY3DLAYER
10
-65.77548768742025
20
69.96130460005132
30
0.0
 70
     32
  0
VERTEX
  8
MY3DLAYER
10
-66.0149046107419
20
69.85724747992441
30
0.0
 70
     32
  0
VERTEX
  8
MY3DLAYER
10
-66.21923163576143
20
69.69477036070911
30
0.0
 70
     32
  0
VERTEX
  8
MY3DLAYER
10
-66.3745442133904
20
69.4849457895738
30
0.0
 70
     32
  0
VERTEX
  8
MY3DLAYER
10
-66.47025804812941
20
69.24207296428983
30
0.0
 70
     32
  0
VERTEX
  8
MY3DLAYER
10
-66.49985040031562
20
68.982703266534
30
0.0
 70
     32
  0
VERTEX
  8
MY3DLAYER
10
-66.4613046000513
20
68.72451231257969
30
0.0
 70
     32
  0
VERTEX
  8
MY3DLAYER
10
-66.35724747992434
20
68.48509538925813
30
0.0
 70
     32
  0
VERTEX
  8
MY3DLAYER
10
-66.19477036070911
20
68.28076836423853
30
0.0
 70
     32
  0
VERTEX
  8
MY3DLAYER
10
-65.98494578957376
20
68.12545578660959
30
0.0
 70
     32
  0
VERTEX
  8
MY3DLAYER
10
-65.74207296428983
20
68.02974195187058
30
0.0
 70
     32
  0
VERTEX
  8
MY3DLAYER
10
-65.48270326653399
20
68.00014959968433
30
0.0
 70
     32
  0
VERTEX
  8
MY3DLAYER
10
-65.22451231257965
20
68.0386953999487
30
0.0
 70
     32
  0
VERTEX
  8
MY3DLAYER
10
-64.98509538925809
20
68.14275252007559
30
0.0
 70
     32
  0
VERTEX
  8
MY3DLAYER
10
-64.78076836423847
20
68.30522963929089
30
0.0
 70
     32
  0
VERTEX
  8
MY3DLAYER
10
-64.62545578660959
20
68.51505421042621
30
0.0
 70
     32
  0
VERTEX
  8
MY3DLAYER
10
-64.52974195187058
20
68.75792703571017
30
0.0
 70
     32
  0
SEQEND
  0
POLYLINE
 8
Layer0
 66
     1
70
    8
 10
0.0
 20
 0.0
 30
0.0
  0
VERTEX
  8
MY3DLAYER
10
-64.77270359057734
20
51.68632348993819
30
0.0
 70
     32
  0
VERTEX
  8
MY3DLAYER
10
-64.97511920506861
20
51.851175746313395
30
0.0
 70
     32
  0
VERTEX
  8
MY3DLAYER
10
-65.21330457832784
20
51.95802178221178
30
0.0
 70
     32
  0
VERTEX
  8
MY3DLAYER
10
-65.47102777078749
20
51.999580216858284
30
0.0
 70
     32
  0
VERTEX
  8
MY3DLAYER
10
-65.7307253727891
20
51.97301891161031
30
0.0
 70
     32
  0
VERTEX
  8
MY3DLAYER
10
-65.97469942192683
20
51.88014797552587
30
0.0
 70
     32
  0
VERTEX
  8
MY3DLAYER
10
-66.18632348993813
20
51.72729640942265
30
0.0
 70
     32
  0
VERTEX
  8
MY3DLAYER
10
-66.35117574631342
20
51.52488079493141
30
0.0
 70
     32
  0
VERTEX
  8
MY3DLAYER
10
-66.4580217822118
20
51.28669542167213
30
0.0
 70
     32
  0
VERTEX
  8
MY3DLAYER
10
-66.49958021685826
20
51.02897222921247
30
0.0
 70
     32
  0
VERTEX
  8
MY3DLAYER
10
-66.47301891161034
20
50.76927462721086
30
0.0
 70
     32
  0
VERTEX
  8
MY3DLAYER
10
-66.38014797552587
20
50.52530057807313
30
0.0
 70
     32
  0
VERTEX
  8
MY3DLAYER
10
-66.22729640942265
20
50.31367651006182
30
0.0
 70
     32
  0
VERTEX
  8
MY3DLAYER
10
-66.02488079493138
20
50.148824253686605
30
0.0
 70
     32
  0
VERTEX
  8
MY3DLAYER
10
-65.78669542167215
20
50.04197821778822
30
0.0
 70
     32
  0
VERTEX
  8
MY3DLAYER
10
-65.5289722292125
20
50.000419783141716
30
0.0
 70
     32
  0
VERTEX
  8
MY3DLAYER
10
-65.26927462721079
20
50.0269810883897
30
0.0
 70
     32
  0
VERTEX
  8
MY3DLAYER
10
-65.02530057807307
20
50.119852024474135
30
0.0
 70
     32
  0
VERTEX
  8
MY3DLAYER
10
-64.81367651006185
20
50.27270359057736
30
0.0
 70
     32
  0
VERTEX
  8
MY3DLAYER
10
-64.64882425368657
20
50.47511920506859
30
0.0
 70
     32
  0
VERTEX
  8
MY3DLAYER
10
-64.54197821778818
20
50.71330457832788
30
0.0
 70
     32
  0
VERTEX
  8
MY3DLAYER
10
-64.50041978314172
20
50.971027770787536
30
0.0
 70
     32
  0
VERTEX
  8
MY3DLAYER
10
-64.52698108838965
20
51.23072537278914
30
0.0
 70
     32
  0
VERTEX
  8
MY3DLAYER
10
-64.61985202447411
20
51.47469942192688
30
0.0
 70
     32
  0
VERTEX
  8
MY3DLAYER
10
-64.77270359057734
20
51.68632348993819
30
0.0
 70
     32
  0
SEQEND
  0
POLYLINE
 8
Layer0
 66
     1
70
    8
 10
0.0
 20
 0.0
 30
0.0
  0
VERTEX
  8
MY3DLAYER
10
-108.93933982822013
20
90.06066017177982
30
0.0
 70
     32
  0
VERTEX
  8
MY3DLAYER
10
-109.25000000000001
20
90.29903810567666
30
0.0
 70
     32
  0
VERTEX
  8
MY3DLAYER
10
-109.61177143234622
20
90.4488887394336
30
0.0
 70
     32
  0
VERTEX
  8
MY3DLAYER
10
-110.00000000000003
20
90.49999999999999
30
0.0
 70
     32
  0
VERTEX
  8
MY3DLAYER
10
-110.38822856765374
20
90.4488887394336
30
0.0
 70
     32
  0
VERTEX
  8
MY3DLAYER
10
-110.75000000000003
20
90.29903810567666
30
0.0
 70
     32
  0
VERTEX
  8
MY3DLAYER
10
-111.06066017177983
20
90.06066017177982
30
0.0
 70
     32
  0
VERTEX
  8
MY3DLAYER
10
-111.2990381056766
20
89.75
30
0.0
 70
     32
  0
VERTEX
  8
MY3DLAYER
10
-111.44888873943354
20
89.38822856765377
30
0.0
 70
     32
  0
VERTEX
  8
MY3DLAYER
10
-111.49999999999996
20
89.0
30
0.0
 70
     32
  0
VERTEX
  8
MY3DLAYER
10
-111.44888873943354
20
88.61177143234622
30
0.0
 70
     32
  0
VERTEX
  8
MY3DLAYER
10
-111.2990381056766
20
88.25000000000001
30
0.0
 70
     32
  0
VERTEX
  8
MY3DLAYER
10
-111.06066017177983
20
87.93933982822018
30
0.0
 70
     32
  0
VERTEX
  8
MY3DLAYER
10
-110.75000000000003
20
87.70096189432334
30
0.0
 70
     32
  0
VERTEX
  8
MY3DLAYER
10
-110.38822856765374
20
87.5511112605664
30
0.0
 70
     32
  0
VERTEX
  8
MY3DLAYER
10
-110.00000000000003
20
87.5
30
0.0
 70
     32
  0
VERTEX
  8
MY3DLAYER
10
-109.61177143234622
20
87.55111126056639
30
0.0
 70
     32
  0
VERTEX
  8
MY3DLAYER
10
-109.25000000000001
20
87.70096189432334
30
0.0
 70
     32
  0
VERTEX
  8
MY3DLAYER
10
-108.93933982822013
20
87.93933982822018
30
0.0
 70
     32
  0
VERTEX
  8
MY3DLAYER
10
-108.70096189432336
20
88.25000000000001
30
0.0
 70
     32
  0
VERTEX
  8
MY3DLAYER
10
-108.55111126056633
20
88.61177143234622
30
0.0
 70
     32
  0
VERTEX
  8
MY3DLAYER
10
-108.5
20
89.0
30
0.0
 70
     32
  0
VERTEX
  8
MY3DLAYER
10
-108.55111126056633
20
89.38822856765377
30
0.0
 70
     32
  0
VERTEX
  8
MY3DLAYER
10
-108.70096189432336
20
89.75
30
0.0
 70
     32
  0
VERTEX
  8
MY3DLAYER
10
-108.93933982822013
20
90.06066017177982
30
0.0
 70
     32
  0
SEQEND
  0
POLYLINE
 8
Layer0
 66
     1
70
    8
 10
0.0
 20
 0.0
 30
0.0
  0
VERTEX
  8
MY3DLAYER
10
-59.62528868308551
20
89.60014064613834
30
0.0
 70
     32
  0
VERTEX
  8
MY3DLAYER
10
-59.82745866426123
20
89.93549281984626
30
0.0
 70
     32
  0
VERTEX
  8
MY3DLAYER
10
-60.10953539975128
20
90.20709270385665
30
0.0
 70
     32
  0
VERTEX
  8
MY3DLAYER
10
-60.45229582618604
20
90.39643121491419
30
0.0
 70
     32
  0
VERTEX
  8
MY3DLAYER
10
-60.83238138694219
20
90.49060524638703
30
0.0
 70
     32
  0
VERTEX
  8
MY3DLAYER
10
-61.223889879175424
20
90.48319699366024
30
0.0
 70
     32
  0
VERTEX
  8
MY3DLAYER
10
-61.60014064613831
20
90.37471131691444
30
0.0
 70
     32
  0
VERTEX
  8
MY3DLAYER
10
-61.935492819846225
20
90.17254133573877
30
0.0
 70
     32
  0
VERTEX
  8
MY3DLAYER
10
-62.20709270385657
20
89.89046460024869
30
0.0
 70
     32
  0
VERTEX
  8
MY3DLAYER
10
-62.39643121491417
20
89.54770417381398
30
0.0
 70
     32
  0
VERTEX
  8
MY3DLAYER
10
-62.490605246387005
20
89.1676186130578
30
0.0
 70
     32
  0
VERTEX
  8
MY3DLAYER
10
-62.48319699366025
20
88.77611012082458
30
0.0
 70
     32
  0
VERTEX
  8
MY3DLAYER
10
-62.37471131691444
20
88.39985935386164
30
0.0
 70
     32
  0
VERTEX
  8
MY3DLAYER
10
-62.17254133573873
20
88.06450718015373
30
0.0
 70
     32
  0
VERTEX
  8
MY3DLAYER
10
-61.89046460024868
20
87.79290729614335
30
0.0
 70
     32
  0
VERTEX
  8
MY3DLAYER
10
-61.54770417381392
20
87.60356878508581
30
0.0
 70
     32
  0
VERTEX
  8
MY3DLAYER
10
-61.16761861305777
20
87.50939475361297
30
0.0
 70
     32
  0
VERTEX
  8
MY3DLAYER
10
-60.776110120824534
20
87.51680300633976
30
0.0
 70
     32
  0
VERTEX
  8
MY3DLAYER
10
-60.39985935386164
20
87.62528868308557
30
0.0
 70
     32
  0
VERTEX
  8
MY3DLAYER
10
-60.06450718015373
20
87.82745866426123
30
0.0
 70
     32
  0
VERTEX
  8
MY3DLAYER
10
-59.79290729614339
20
88.10953539975132
30
0.0
 70
     32
  0
VERTEX
  8
MY3DLAYER
10
-59.603568785085784
20
88.45229582618602
30
0.0
 70
     32
  0
VERTEX
  8
MY3DLAYER
10
-59.50939475361295
20
88.8323813869422
30
0.0
 70
     32
  0
VERTEX
  8
MY3DLAYER
10
-59.51680300633971
20
89.22388987917542
30
0.0
 70
     32
  0
VERTEX
  8
MY3DLAYER
10
-59.62528868308551
20
89.60014064613834
30
0.0
 70
     32
  0
SEQEND
  0
POLYLINE
 8
Layer0
 66
     1
70
    8
 10
0.0
 20
 0.0
 30
0.0
  0
VERTEX
  8
MY3DLAYER
10
-111.3787724400228
20
31.590750843108555
30
0.0
 70
     32
  0
VERTEX
  8
MY3DLAYER
10
-111.48468947750051
20
31.21376892992021
30
0.0
 70
     32
  0
VERTEX
  8
MY3DLAYER
10
-111.48942738065192
20
30.822219017427667
30
0.0
 70
     32
  0
VERTEX
  8
MY3DLAYER
10
-111.39266326920699
20
30.44278458510046
30
0.0
 70
     32
  0
VERTEX
  8
MY3DLAYER
10
-111.20099145745043
20
30.10132346245665
30
0.0
 70
     32
  0
VERTEX
  8
MY3DLAYER
10
-110.92747406260096
20
29.82110566071322
30
0.0
 70
     32
  0
VERTEX
  8
MY3DLAYER
10
-110.59075084310855
20
29.621227559977175
30
0.0
 70
     32
  0
VERTEX
  8
MY3DLAYER
10
-110.21376892992019
20
29.515310522499494
30
0.0
 70
     32
  0
VERTEX
  8
MY3DLAYER
10
-109.82221901742766
20
29.510572619348107
30
0.0
 70
     32
  0
VERTEX
  8
MY3DLAYER
10
-109.44278458510038
20
29.60733673079302
30
0.0
 70
     32
  0
VERTEX
  8
MY3DLAYER
10
-109.10132346245656
20
29.79900854254952
30
0.0
 70
     32
  0
VERTEX
  8
MY3DLAYER
10
-108.82110566071314
20
30.072525937399046
30
0.0
 70
     32
  0
VERTEX
  8
MY3DLAYER
10
-108.62122755997716
20
30.409249156891466
30
0.0
 70
     32
  0
VERTEX
  8
MY3DLAYER
10
-108.51531052249945
20
30.78623107007981
30
0.0
 70
     32
  0
VERTEX
  8
MY3DLAYER
10
-108.51057261934804
20
31.177780982572354
30
0.0
 70
     32
  0
VERTEX
  8
MY3DLAYER
10
-108.60733673079297
20
31.557215414899563
30
0.0
 70
     32
  0
VERTEX
  8
MY3DLAYER
10
-108.79900854254944
20
31.89867653754337
30
0.0
 70
     32
  0
VERTEX
  8
MY3DLAYER
10
-109.07252593739899
20
32.178894339286806
30
0.0
 70
     32
  0
VERTEX
  8
MY3DLAYER
10
-109.4092491568914
20
32.37877244002285
30
0.0
 70
     32
  0
VERTEX
  8
MY3DLAYER
10
-109.78623107007977
20
32.48468947750053
30
0.0
 70
     32
  0
VERTEX
  8
MY3DLAYER
10
-110.1777809825723
20
32.48942738065192
30
0.0
 70
     32
  0
VERTEX
  8
MY3DLAYER
10
-110.55721541489947
20
32.392663269207006
30
0.0
 70
     32
  0
VERTEX
  8
MY3DLAYER
10
-110.89867653754331
20
32.200991457450506
30
0.0
 70
     32
  0
VERTEX
  8
MY3DLAYER
10
-111.17889433928673
20
31.927474062600975
30
0.0
 70
     32
  0
VERTEX
  8
MY3DLAYER
10
-111.3787724400228
20
31.590750843108555
30
0.0
 70
     32
  0
SEQEND
  0
POLYLINE
 8
Layer0
 66
     1
70
    8
 10
0.0
 20
 0.0
 30
0.0
  0
VERTEX
  8
MY3DLAYER
10
-61.546087286317345
20
32.49929182017374
30
0.0
 70
     32
  0
VERTEX
  8
MY3DLAYER
10
-61.93256217734494
20
32.43627642281372
30
0.0
 70
     32
  0
VERTEX
  8
MY3DLAYER
10
-62.289558670829216
20
32.275381160797956
30
0.0
 70
     32
  0
VERTEX
  8
MY3DLAYER
10
-62.59274804570387
20
32.027570780340845
30
0.0
 70
     32
  0
VERTEX
  8
MY3DLAYER
10
-62.821468447115365
20
31.7097331493445
30
0.0
 70
     32
  0
VERTEX
  8
MY3DLAYER
10
-62.96013295768575
20
31.343528377109823
30
0.0
 70
     32
  0
VERTEX
  8
MY3DLAYER
10
-62.99929182017369
20
30.953912713682595
30
0.0
 70
     32
  0
VERTEX
  8
MY3DLAYER
10
-62.93627642281364
20
30.56743782265505
30
0.0
 70
     32
  0
VERTEX
  8
MY3DLAYER
10
-62.775381160797885
20
30.210441329170774
30
0.0
 70
     32
  0
VERTEX
  8
MY3DLAYER
10
-62.52757078034085
20
29.907251954296107
30
0.0
 70
     32
  0
VERTEX
  8
MY3DLAYER
10
-62.20973314934443
20
29.678531552884632
30
0.0
 70
     32
  0
VERTEX
  8
MY3DLAYER
10
-61.84352837710982
20
29.539867042314206
30
0.0
 70
     32
  0
VERTEX
  8
MY3DLAYER
10
-61.45391271368257
20
29.500708179826265
30
0.0
 70
     32
  0
VERTEX
  8
MY3DLAYER
10
-61.06743782265506
20
29.563723577186284
30
0.0
 70
     32
  0
VERTEX
  8
MY3DLAYER
10
-60.710441329170784
20
29.72461883920204
30
0.0
 70
     32
  0
VERTEX
  8
MY3DLAYER
10
-60.407251954296036
20
29.972429219659155
30
0.0
 70
     32
  0
VERTEX
  8
MY3DLAYER
10
-60.178531552884635
20
30.29026685065549
30
0.0
 70
     32
  0
VERTEX
  8
MY3DLAYER
10
-60.039867042314164
20
30.656471622890177
30
0.0
 70
     32
  0
VERTEX
  8
MY3DLAYER
10
-60.00070817982622
20
31.046087286317405
30
0.0
 70
     32
  0
VERTEX
  8
MY3DLAYER
10
-60.063723577186266
20
31.43256217734495
30
0.0
 70
     32
  0
VERTEX
  8
MY3DLAYER
10
-60.22461883920202
20
31.789558670829226
30
0.0
 70
     32
  0
VERTEX
  8
MY3DLAYER
10
-60.47242921965915
20
32.09274804570389
30
0.0
 70
     32
  0
VERTEX
  8
MY3DLAYER
10
-60.79026685065548
20
32.321468447115365
30
0.0
 70
     32
  0
VERTEX
  8
MY3DLAYER
10
-61.15647162289018
20
32.46013295768579
30
0.0
 70
     32
  0
VERTEX
  8
MY3DLAYER
10
-61.546087286317345
20
32.49929182017374
30
0.0
 70
     32
  0
SEQEND
  0
POLYLINE
 8
Layer0
 66
     1
70
    8
 10
0.0
 20
 0.0
 30
0.0
  0
VERTEX
  8
MY3DLAYER
10
-62.99999999999997
20
23.650514851818315
30
0.0
 70
     32
  0
VERTEX
  8
MY3DLAYER
10
-62.948888739433556
20
23.262286284164535
30
0.0
 70
     32
  0
VERTEX
  8
MY3DLAYER
10
-62.79903810567663
20
22.900514851818315
30
0.0
 70
     32
  0
VERTEX
  8
MY3DLAYER
10
-62.560660171779844
20
22.589854680038496
30
0.0
 70
     32
  0
VERTEX
  8
MY3DLAYER
10
-62.249999999999964
20
22.35147674614166
30
0.0
 70
     32
  0
VERTEX
  8
MY3DLAYER
10
-61.888228567653755
20
22.201626112384712
30
0.0
 70
     32
  0
VERTEX
  8
MY3DLAYER
10
-61.49999999999996
20
22.15051485181832
30
0.0
 70
     32
  0
VERTEX
  8
MY3DLAYER
10
-61.11177143234615
20
22.201626112384712
30
0.0
 70
     32
  0
VERTEX
  8
MY3DLAYER
10
-60.750000000000036
20
22.35147674614166
30
0.0
 70
     32
  0
VERTEX
  8
MY3DLAYER
10
-60.439339828220156
20
22.589854680038496
30
0.0
 70
     32
  0
VERTEX
  8
MY3DLAYER
10
-60.200961894323285
20
22.900514851818315
30
0.0
 70
     32
  0
VERTEX
  8
MY3DLAYER
10
-60.05111126056635
20
23.26228628416453
30
0.0
 70
     32
  0
VERTEX
  8
MY3DLAYER
10
-60.00000000000003
20
23.650514851818315
30
0.0
 70
     32
  0
VERTEX
  8
MY3DLAYER
10
-60.05111126056635
20
24.038743419472095
30
0.0
 70
     32
  0
VERTEX
  8
MY3DLAYER
10
-60.200961894323285
20
24.400514851818315
30
0.0
 70
     32
  0
VERTEX
  8
MY3DLAYER
10
-60.439339828220156
20
24.711175023598134
30
0.0
 70
     32
  0
VERTEX
  8
MY3DLAYER
10
-60.74999999999994
20
24.94955295749497
30
0.0
 70
     32
  0
VERTEX
  8
MY3DLAYER
10
-61.11177143234615
20
25.099403591251917
30
0.0
 70
     32
  0
VERTEX
  8
MY3DLAYER
10
-61.49999999999996
20
25.15051485181831
30
0.0
 70
     32
  0
VERTEX
  8
MY3DLAYER
10
-61.888228567653755
20
25.099403591251917
30
0.0
 70
     32
  0
VERTEX
  8
MY3DLAYER
10
-62.249999999999964
20
24.94955295749497
30
0.0
 70
     32
  0
VERTEX
  8
MY3DLAYER
10
-62.560660171779844
20
24.711175023598134
30
0.0
 70
     32
  0
VERTEX
  8
MY3DLAYER
10
-62.79903810567663
20
24.400514851818315
30
0.0
 70
     32
  0
VERTEX
  8
MY3DLAYER
10
-62.948888739433556
20
24.038743419472095
30
0.0
 70
     32
  0
VERTEX
  8
MY3DLAYER
10
-62.99999999999997
20
23.650514851818315
30
0.0
 70
     32
  0
SEQEND
  0
POLYLINE
 8
Layer0
 66
     1
70
    8
 10
0.0
 20
 0.0
 30
0.0
  0
VERTEX
  8
MY3DLAYER
10
-110.08432741789989
20
26.400443276207056
30
0.0
 70
     32
  0
VERTEX
  8
MY3DLAYER
10
-110.44650086896773
20
26.251566907898443
30
0.0
 70
     32
  0
VERTEX
  8
MY3DLAYER
10
-110.75780151946651
20
26.014025992058155
30
0.0
 70
     32
  0
VERTEX
  8
MY3DLAYER
10
-110.99701474451331
20
25.70400854954578
30
0.0
 70
     32
  0
VERTEX
  8
MY3DLAYER
10
-111.14783855813975
20
25.34264175674049
30
0.0
 70
     32
  0
VERTEX
  8
MY3DLAYER
10
-111.19999456669525
20
24.954552163385102
30
0.0
 70
     32
  0
VERTEX
  8
MY3DLAYER
10
-111.14992842438872
20
24.56618743391841
30
0.0
 70
     32
  0
VERTEX
  8
MY3DLAYER
10
-111.0010520560801
20
24.20401398285051
30
0.0
 70
     32
  0
VERTEX
  8
MY3DLAYER
10
-110.76351114023977
20
23.892713332351754
30
0.0
 70
     32
  0
VERTEX
  8
MY3DLAYER
10
-110.45349369772742
20
23.65350010730497
30
0.0
 70
     32
  0
VERTEX
  8
MY3DLAYER
10
-110.09212690492213
20
23.50267629367857
30
0.0
 70
     32
  0
VERTEX
  8
MY3DLAYER
10
-109.7040373115668
20
23.45052028512304
30
0.0
 70
     32
  0
VERTEX
  8
MY3DLAYER
10
-109.3156725821001
20
23.500586427429567
30
0.0
 70
     32
  0
VERTEX
  8
MY3DLAYER
10
-108.95349913103217
20
23.64946279573818
30
0.0
 70
     32
  0
VERTEX
  8
MY3DLAYER
10
-108.64219848053341
20
23.88700371157847
30
0.0
 70
     32
  0
VERTEX
  8
MY3DLAYER
10
-108.40298525548668
20
24.197021154090844
30
0.0
 70
     32
  0
VERTEX
  8
MY3DLAYER
10
-108.25216144186025
20
24.558387946896133
30
0.0
 70
     32
  0
VERTEX
  8
MY3DLAYER
10
-108.20000543330467
20
24.94647754025152
30
0.0
 70
     32
  0
VERTEX
  8
MY3DLAYER
10
-108.25007157561129
20
25.334842269718212
30
0.0
 70
     32
  0
VERTEX
  8
MY3DLAYER
10
-108.39894794391981
20
25.697015720786116
30
0.0
 70
     32
  0
VERTEX
  8
MY3DLAYER
10
-108.63648885976015
20
26.008316371284874
30
0.0
 70
     32
  0
VERTEX
  8
MY3DLAYER
10
-108.94650630227248
20
26.247529596331653
30
0.0
 70
     32
  0
VERTEX
  8
MY3DLAYER
10
-109.30787309507778
20
26.39835340995806
30
0.0
 70
     32
  0
VERTEX
  8
MY3DLAYER
10
-109.69596268843321
20
26.450509418513583
30
0.0
 70
     32
  0
VERTEX
  8
MY3DLAYER
10
-110.08432741789989
20
26.400443276207056
30
0.0
 70
     32
  0
SEQEND
  0
POLYLINE
 8
Layer0
 66
     1
70
    8
 10
0.0
 20
 0.0
 30
0.0
  0
VERTEX
  8
MY3DLAYER
10
-66.4787645872274
20
74.30490736919418
30
0.0
 70
     32
  0
VERTEX
  8
MY3DLAYER
10
-66.09593713669715
20
74.3872294489766
30
0.0
 70
     32
  0
VERTEX
  8
MY3DLAYER
10
-65.74746073729769
20
74.56582950709755
30
0.0
 70
     32
  0
VERTEX
  8
MY3DLAYER
10
-65.4570834797637
20
74.82853624474662
30
0.0
 70
     32
  0
VERTEX
  8
MY3DLAYER
10
-65.24459409432495
20
75.15744663189643
30
0.0
 70
     32
  0
VERTEX
  8
MY3DLAYER
10
-65.12447338144378
20
75.53014596921287
30
0.0
 70
     32
  0
VERTEX
  8
MY3DLAYER
10
-65.10490736919414
20
75.92123541277257
30
0.0
 70
     32
  0
VERTEX
  8
MY3DLAYER
10
-65.18722944897658
20
76.30406286330282
30
0.0
 70
     32
  0
VERTEX
  8
MY3DLAYER
10
-65.36582950709752
20
76.65253926270226
30
0.0
 70
     32
  0
VERTEX
  8
MY3DLAYER
10
-65.62853624474661
20
76.94291652023627
30
0.0
 70
     32
  0
VERTEX
  8
MY3DLAYER
10
-65.95744663189642
20
77.15540590567504
30
0.0
 70
     32
  0
VERTEX
  8
MY3DLAYER
10
-66.33014596921286
20
77.2755266185562
30
0.0
 70
     32
  0
VERTEX
  8
MY3DLAYER
10
-66.72123541277253
20
77.29509263080581
30
0.0
 70
     32
  0
VERTEX
  8
MY3DLAYER
10
-67.1040628633028
20
77.21277055102338
30
0.0
 70
     32
  0
VERTEX
  8
MY3DLAYER
10
-67.45253926270225
20
77.03417049290245
30
0.0
 70
     32
  0
VERTEX
  8
MY3DLAYER
10
-67.74291652023625
20
76.77146375525338
30
0.0
 70
     32
  0
VERTEX
  8
MY3DLAYER
10
-67.955405905675
20
76.44255336810356
30
0.0
 70
     32
  0
VERTEX
  8
MY3DLAYER
10
-68.07552661855615
20
76.06985403078713
30
0.0
 70
     32
  0
VERTEX
  8
MY3DLAYER
10
-68.09509263080581
20
75.67876458722742
30
0.0
 70
     32
  0
VERTEX
  8
MY3DLAYER
10
-68.01277055102335
20
75.29593713669718
30
0.0
 70
     32
  0
VERTEX
  8
MY3DLAYER
10
-67.83417049290242
20
74.94746073729775
30
0.0
 70
     32
  0
VERTEX
  8
MY3DLAYER
10
-67.57146375525333
20
74.65708347976373
30
0.0
 70
     32
  0
VERTEX
  8
MY3DLAYER
10
-67.24255336810351
20
74.44459409432497
30
0.0
 70
     32
  0
VERTEX
  8
MY3DLAYER
10
-66.86985403078707
20
74.3244733814438
30
0.0
 70
     32
  0
VERTEX
  8
MY3DLAYER
10
-66.4787645872274
20
74.30490736919418
30
0.0
 70
     32
  0
SEQEND
  0
POLYLINE
 8
Layer0
 66
     1
70
    8
 10
0.0
 20
 0.0
 30
0.0
  0
VERTEX
  8
MY3DLAYER
10
-93.20096189432336
20
75.05
30
0.0
 70
     32
  0
VERTEX
  8
MY3DLAYER
10
-93.05111126056634
20
75.41177143234621
30
0.0
 70
     32
  0
VERTEX
  8
MY3DLAYER
10
-92.99999999999991
20
75.8
30
0.0
 70
     32
  0
VERTEX
  8
MY3DLAYER
10
-93.05111126056634
20
76.18822856765378
30
0.0
 70
     32
  0
VERTEX
  8
MY3DLAYER
10
-93.20096189432336
20
76.55
30
0.0
 70
     32
  0
VERTEX
  8
MY3DLAYER
10
-93.43933982822014
20
76.86066017177983
30
0.0
 70
     32
  0
VERTEX
  8
MY3DLAYER
10
-93.74999999999993
20
77.09903810567666
30
0.0
 70
     32
  0
VERTEX
  8
MY3DLAYER
10
-94.11177143234623
20
77.2488887394336
30
0.0
 70
     32
  0
VERTEX
  8
MY3DLAYER
10
-94.49999999999994
20
77.3
30
0.0
 70
     32
  0
VERTEX
  8
MY3DLAYER
10
-94.88822856765374
20
77.2488887394336
30
0.0
 70
     32
  0
VERTEX
  8
MY3DLAYER
10
-95.24999999999994
20
77.09903810567666
30
0.0
 70
     32
  0
VERTEX
  8
MY3DLAYER
10
-95.56066017177974
20
76.86066017177983
30
0.0
 70
     32
  0
VERTEX
  8
MY3DLAYER
10
-95.79903810567662
20
76.55
30
0.0
 70
     32
  0
VERTEX
  8
MY3DLAYER
10
-95.94888873943354
20
76.18822856765378
30
0.0
 70
     32
  0
VERTEX
  8
MY3DLAYER
10
-95.99999999999996
20
75.8
30
0.0
 70
     32
  0
VERTEX
  8
MY3DLAYER
10
-95.94888873943354
20
75.41177143234621
30
0.0
 70
     32
  0
VERTEX
  8
MY3DLAYER
10
-95.79903810567662
20
75.05
30
0.0
 70
     32
  0
VERTEX
  8
MY3DLAYER
10
-95.56066017177974
20
74.73933982822018
30
0.0
 70
     32
  0
VERTEX
  8
MY3DLAYER
10
-95.24999999999994
20
74.50096189432334
30
0.0
 70
     32
  0
VERTEX
  8
MY3DLAYER
10
-94.88822856765374
20
74.3511112605664
30
0.0
 70
     32
  0
VERTEX
  8
MY3DLAYER
10
-94.49999999999994
20
74.3
30
0.0
 70
     32
  0
VERTEX
  8
MY3DLAYER
10
-94.11177143234623
20
74.3511112605664
30
0.0
 70
     32
  0
VERTEX
  8
MY3DLAYER
10
-93.74999999999993
20
74.50096189432334
30
0.0
 70
     32
  0
VERTEX
  8
MY3DLAYER
10
-93.43933982822014
20
74.73933982822018
30
0.0
 70
     32
  0
VERTEX
  8
MY3DLAYER
10
-93.20096189432336
20
75.05
30
0.0
 70
     32
  0
SEQEND
  0
POLYLINE
 8
Layer0
 66
     1
70
    8
 10
0.0
 20
 0.0
 30
0.0
  0
VERTEX
  8
MY3DLAYER
10
-75.49999999999993
20
51.0
30
0.0
 70
     32
  0
VERTEX
  8
MY3DLAYER
10
-75.49999999999993
20
69.00000000000001
30
0.0
 70
     32
  0
VERTEX
  8
MY3DLAYER
10
-94.49999999999994
20
69.00000000000001
30
0.0
 70
     32
  0
VERTEX
  8
MY3DLAYER
10
-94.49999999999994
20
51.0
30
0.0
 70
     32
  0
VERTEX
  8
MY3DLAYER
10
-75.49999999999993
20
51.0
30
0.0
 70
     32
  0
SEQEND
  0
POLYLINE
 8
Layer0
 66
     1
70
    8
 10
0.0
 20
 0.0
 30
0.0
  0
VERTEX
  8
MY3DLAYER
10
-106.73205080756881
20
9.999999999999998
30
0.0
 70
     32
  0
VERTEX
  8
MY3DLAYER
10
-106.41421356237304
20
9.585786437626904
30
0.0
 70
     32
  0
VERTEX
  8
MY3DLAYER
10
-105.99999999999994
20
9.267949192431118
30
0.0
 70
     32
  0
VERTEX
  8
MY3DLAYER
10
-105.51763809020497
20
9.06814834742186
30
0.0
 70
     32
  0
VERTEX
  8
MY3DLAYER
10
-104.99999999999994
20
8.999999999999995
30
0.0
 70
     32
  0
VERTEX
  8
MY3DLAYER
10
-104.4823619097949
20
9.06814834742186
30
0.0
 70
     32
  0
VERTEX
  8
MY3DLAYER
10
-103.99999999999994
20
9.267949192431118
30
0.0
 70
     32
  0
VERTEX
  8
MY3DLAYER
10
-103.58578643762685
20
9.585786437626904
30
0.0
 70
     32
  0
VERTEX
  8
MY3DLAYER
10
-103.26794919243108
20
9.999999999999998
30
0.0
 70
     32
  0
VERTEX
  8
MY3DLAYER
10
-103.0681483474218
20
10.482361909794957
30
0.0
 70
     32
  0
VERTEX
  8
MY3DLAYER
10
-102.99999999999994
20
10.999999999999996
30
0.0
 70
     32
  0
VERTEX
  8
MY3DLAYER
10
-103.0681483474218
20
11.517638090205041
30
0.0
 70
     32
  0
VERTEX
  8
MY3DLAYER
10
-103.26794919243108
20
11.999999999999995
30
0.0
 70
     32
  0
VERTEX
  8
MY3DLAYER
10
-103.58578643762685
20
12.41421356237309
30
0.0
 70
     32
  0
VERTEX
  8
MY3DLAYER
10
-103.99999999999994
20
12.732050807568875
30
0.0
 70
     32
  0
VERTEX
  8
MY3DLAYER
10
-104.4823619097949
20
12.931851652578136
30
0.0
 70
     32
  0
VERTEX
  8
MY3DLAYER
10
-104.99999999999994
20
12.999999999999998
30
0.0
 70
     32
  0
VERTEX
  8
MY3DLAYER
10
-105.51763809020498
20
12.93185165257813
30
0.0
 70
     32
  0
VERTEX
  8
MY3DLAYER
10
-105.99999999999994
20
12.732050807568875
30
0.0
 70
     32
  0
VERTEX
  8
MY3DLAYER
10
-106.41421356237304
20
12.41421356237309
30
0.0
 70
     32
  0
VERTEX
  8
MY3DLAYER
10
-106.73205080756881
20
11.999999999999995
30
0.0
 70
     32
  0
VERTEX
  8
MY3DLAYER
10
-106.93185165257806
20
11.517638090205036
30
0.0
 70
     32
  0
VERTEX
  8
MY3DLAYER
10
-106.99999999999994
20
10.999999999999996
30
0.0
 70
     32
  0
VERTEX
  8
MY3DLAYER
10
-106.93185165257806
20
10.482361909794957
30
0.0
 70
     32
  0
VERTEX
  8
MY3DLAYER
10
-106.73205080756881
20
9.999999999999998
30
0.0
 70
     32
  0
SEQEND
  0
POLYLINE
 8
Layer0
 66
     1
70
    8
 10
0.0
 20
 0.0
 30
0.0
  0
VERTEX
  8
MY3DLAYER
10
-64.11896222304863
20
9.204513315119067
30
0.0
 70
     32
  0
VERTEX
  8
MY3DLAYER
10
-63.684276708031184
20
9.493722396445149
30
0.0
 70
     32
  0
VERTEX
  8
MY3DLAYER
10
-63.33925556102586
20
9.885581807212057
30
0.0
 70
     32
  0
VERTEX
  8
MY3DLAYER
10
-63.10741140302668
20
10.353386976154326
30
0.0
 70
     32
  0
VERTEX
  8
MY3DLAYER
10
-63.00454403026068
20
10.865257754093125
30
0.0
 70
     32
  0
VERTEX
  8
MY3DLAYER
10
-63.03766368418551
20
11.386310993418395
30
0.0
 70
     32
  0
VERTEX
  8
MY3DLAYER
10
-63.20451331511899
20
11.881037776951299
30
0.0
 70
     32
  0
VERTEX
  8
MY3DLAYER
10
-63.493722396445065
20
12.315723291968743
30
0.0
 70
     32
  0
VERTEX
  8
MY3DLAYER
10
-63.885581807211985
20
12.660744438974062
30
0.0
 70
     32
  0
VERTEX
  8
MY3DLAYER
10
-64.35338697615425
20
12.892588596973248
30
0.0
 70
     32
  0
VERTEX
  8
MY3DLAYER
10
-64.86525775409305
20
12.995455969739245
30
0.0
 70
     32
  0
VERTEX
  8
MY3DLAYER
10
-65.38631099341832
20
12.96233631581442
30
0.0
 70
     32
  0
VERTEX
  8
MY3DLAYER
10
-65.88103777695123
20
12.795486684880938
30
0.0
 70
     32
  0
VERTEX
  8
MY3DLAYER
10
-66.31572329196867
20
12.506277603554855
30
0.0
 70
     32
  0
VERTEX
  8
MY3DLAYER
10
-66.66074443897398
20
12.114418192787948
30
0.0
 70
     32
  0
VERTEX
  8
MY3DLAYER
10
-66.89258859697317
20
11.64661302384568
30
0.0
 70
     32
  0
VERTEX
  8
MY3DLAYER
10
-66.99545596973917
20
11.134742245906878
30
0.0
 70
     32
  0
VERTEX
  8
MY3DLAYER
10
-66.96233631581434
20
10.613689006581609
30
0.0
 70
     32
  0
VERTEX
  8
MY3DLAYER
10
-66.79548668488086
20
10.118962223048706
30
0.0
 70
     32
  0
VERTEX
  8
MY3DLAYER
10
-66.50627760355478
20
9.684276708031263
30
0.0
 70
     32
  0
VERTEX
  8
MY3DLAYER
10
-66.11441819278787
20
9.339255561025944
30
0.0
 70
     32
  0
VERTEX
  8
MY3DLAYER
10
-65.6466130238456
20
9.107411403026756
30
0.0
 70
     32
  0
VERTEX
  8
MY3DLAYER
10
-65.13474224590679
20
9.00454403026076
30
0.0
 70
     32
  0
VERTEX
  8
MY3DLAYER
10
-64.61368900658154
20
9.037663684185585
30
0.0
 70
     32
  0
VERTEX
  8
MY3DLAYER
10
-64.11896222304863
20
9.204513315119067
30
0.0
 70
     32
  0
SEQEND
  0
POLYLINE
 8
Layer0
 66
     1
70
    8
 10
0.0
 20
 0.0
 30
0.0
  0
VERTEX
  8
MY3DLAYER
10
-66.72227962111681
20
111.50227525018923
30
0.0
 70
     32
  0
VERTEX
  8
MY3DLAYER
10
-67.09619353728024
20
111.13788291631434
30
0.0
 70
     32
  0
VERTEX
  8
MY3DLAYER
10
-67.36305496981522
20
110.68913090739088
30
0.0
 70
     32
  0
VERTEX
  8
MY3DLAYER
10
-67.50467775310383
20
110.18660093122922
30
0.0
 70
     32
  0
VERTEX
  8
MY3DLAYER
10
-67.5114105285077
20
109.66453957523473
30
0.0
 70
     32
  0
VERTEX
  8
MY3DLAYER
10
-67.38279446850947
20
109.15852445807124
30
0.0
 70
     32
  0
VERTEX
  8
MY3DLAYER
10
-67.12759454504993
20
108.7030396737439
30
0.0
 70
     32
  0
VERTEX
  8
MY3DLAYER
10
-66.76320221117504
20
108.32912575758047
30
0.0
 70
     32
  0
VERTEX
  8
MY3DLAYER
10
-66.31445020225159
20
108.06226432504552
30
0.0
 70
     32
  0
VERTEX
  8
MY3DLAYER
10
-65.81192022608994
20
107.92064154175691
30
0.0
 70
     32
  0
VERTEX
  8
MY3DLAYER
10
-65.28985887009543
20
107.91390876635305
30
0.0
 70
     32
  0
VERTEX
  8
MY3DLAYER
10
-64.78384375293194
20
108.04252482635128
30
0.0
 70
     32
  0
VERTEX
  8
MY3DLAYER
10
-64.32835896860463
20
108.2977247498108
30
0.0
 70
     32
  0
VERTEX
  8
MY3DLAYER
10
-63.9544450524412
20
108.66211708368567
30
0.0
 70
     32
  0
VERTEX
  8
MY3DLAYER
10
-63.68758361990623
20
109.11086909260915
30
0.0
 70
     32
  0
VERTEX
  8
MY3DLAYER
10
-63.54596083661762
20
109.6133990687708
30
0.0
 70
     32
  0
VERTEX
  8
MY3DLAYER
10
-63.53922806121375
20
110.1354604247653
30
0.0
 70
     32
  0
VERTEX
  8
MY3DLAYER
10
-63.667844121211985
20
110.64147554192878
30
0.0
 70
     32
  0
VERTEX
  8
MY3DLAYER
10
-63.92304404467152
20
111.09696032625612
30
0.0
 70
     32
  0
VERTEX
  8
MY3DLAYER
10
-64.2874363785464
20
111.47087424241953
30
0.0
 70
     32
  0
VERTEX
  8
MY3DLAYER
10
-64.73618838746985
20
111.73773567495448
30
0.0
 70
     32
  0
VERTEX
  8
MY3DLAYER
10
-65.2387183636315
20
111.87935845824312
30
0.0
 70
     32
  0
VERTEX
  8
MY3DLAYER
10
-65.76077971962602
20
111.88609123364698
30
0.0
 70
     32
  0
VERTEX
  8
MY3DLAYER
10
-66.26679483678951
20
111.75747517364874
30
0.0
 70
     32
  0
VERTEX
  8
MY3DLAYER
10
-66.72227962111681
20
111.50227525018923
30
0.0
 70
     32
  0
SEQEND
  0
POLYLINE
 8
Layer0
 66
     1
70
    8
 10
0.0
 20
 0.0
 30
0.0
  0
VERTEX
  8
MY3DLAYER
10
-107.44397237996583
20
110.26326880258132
30
0.0
 70
     32
  0
VERTEX
  8
MY3DLAYER
10
-107.47097848794256
20
109.74186295315172
30
0.0
 70
     32
  0
VERTEX
  8
MY3DLAYER
10
-107.36211462104461
20
109.23123388213101
30
0.0
 70
     32
  0
VERTEX
  8
MY3DLAYER
10
-107.12479967189503
20
108.7661801168548
30
0.0
 70
     32
  0
VERTEX
  8
MY3DLAYER
10
-106.77520626209683
20
108.37839430288899
30
0.0
 70
     32
  0
VERTEX
  8
MY3DLAYER
10
-106.33715860479735
20
108.09430340260899
30
0.0
 70
     32
  0
VERTEX
  8
MY3DLAYER
10
-105.8405089239336
20
107.93326774138647
30
0.0
 70
     32
  0
VERTEX
  8
MY3DLAYER
10
-105.319103074504
20
107.90626163340974
30
0.0
 70
     32
  0
VERTEX
  8
MY3DLAYER
10
-104.80847400348328
20
108.01512550030768
30
0.0
 70
     32
  0
VERTEX
  8
MY3DLAYER
10
-104.34342023820707
20
108.25244044945727
30
0.0
 70
     32
  0
VERTEX
  8
MY3DLAYER
10
-103.95563442424127
20
108.60203385925547
30
0.0
 70
     32
  0
VERTEX
  8
MY3DLAYER
10
-103.67154352396126
20
109.04008151655492
30
0.0
 70
     32
  0
VERTEX
  8
MY3DLAYER
10
-103.51050786273875
20
109.5367311974187
30
0.0
 70
     32
  0
VERTEX
  8
MY3DLAYER
10
-103.483501754762
20
110.05813704684829
30
0.0
 70
     32
  0
VERTEX
  8
MY3DLAYER
10
-103.59236562165995
20
110.56876611786899
30
0.0
 70
     32
  0
VERTEX
  8
MY3DLAYER
10
-103.82968057080954
20
111.03381988314521
30
0.0
 70
     32
  0
VERTEX
  8
MY3DLAYER
10
-104.17927398060775
20
111.42160569711103
30
0.0
 70
     32
  0
VERTEX
  8
MY3DLAYER
10
-104.6173216379072
20
111.70569659739104
30
0.0
 70
     32
  0
VERTEX
  8
MY3DLAYER
10
-105.11397131877098
20
111.86673225861355
30
0.0
 70
     32
  0
VERTEX
  8
MY3DLAYER
10
-105.63537716820056
20
111.8937383665903
30
0.0
 70
     32
  0
VERTEX
  8
MY3DLAYER
10
-106.14600623922126
20
111.78487449969234
30
0.0
 70
     32
  0
VERTEX
  8
MY3DLAYER
10
-106.61106000449749
20
111.54755955054276
30
0.0
 70
     32
  0
VERTEX
  8
MY3DLAYER
10
-106.99884581846331
20
111.19796614074455
30
0.0
 70
     32
  0
VERTEX
  8
MY3DLAYER
10
-107.28293671874331
20
110.75991848344508
30
0.0
 70
     32
  0
VERTEX
  8
MY3DLAYER
10
-107.44397237996583
20
110.26326880258132
30
0.0
 70
     32
  0
SEQEND
 0
ENDSEC
 0
EOF
